<svg id="Text_Logo_SVG" data-name="Text Logo SVG" xmlns="http://www.w3.org/2000/svg" width="449.79" height="151.8" viewBox="0 0 1363 460">
  <defs>
    <style>
      .cls-1 {
        fill: #fff;
        fill-rule: evenodd;
      }
    </style>
  </defs>
  <path id="ANALYTICS" class="cls-1" d="M45.917,367.949L3.5,457.732h10.01l13.987-29.541H66.172l14.121,29.541h9.691l-41.87-89.783h-2.2Zm16.375,51.575H31.6l15.385-32.5Zm139.7,38.208V389.746l59.265,67.986h2.014V367.949h-8.85v68.823l-59.754-68.823h-1.953v89.783h9.278Zm206.364-89.783-42.419,89.783h10.01l13.986-29.541h38.678l14.121,29.541h9.692l-41.87-89.783h-2.2Zm16.375,51.575H394.033l15.385-32.5Zm130.359,38.208h43.518v-8.667H564.059V367.949h-8.972v89.783Zm168.4-42.908v42.908h8.85V414.824l28.442-46.875H750.4l-22.612,37.029-22.973-37.029H694.5Zm151.921-38.086v80.994h9.155V376.738h20.02v-8.789H855.389v8.789h20.02Zm129.581,80.994h8.97V367.949h-8.97v89.783Zm185.31-87.067a50.846,50.846,0,0,0-22.71-4.974q-20.8,0-34.63,13.458t-13.83,33.173q0,18.738,11.42,31.982,13.6,15.687,37.17,15.686a52.575,52.575,0,0,0,22.43-4.669,45.294,45.294,0,0,0,16.75-13.214l-7.08-5.371q-12.69,14.772-31.55,14.77-17.16,0-28.42-10.986t-11.26-27.4a38.3,38.3,0,0,1,5.04-19.562,37,37,0,0,1,14.19-13.855,39.841,39.841,0,0,1,19.9-5.157,41.126,41.126,0,0,1,18.03,3.937,38.764,38.764,0,0,1,14.07,11.566l7.08-5.432A44.081,44.081,0,0,0,1190.3,370.665Zm126.35,84.961a26.45,26.45,0,0,0,14.83,4.364,24.9,24.9,0,0,0,18.03-7.2,22.872,22.872,0,0,0,7.42-16.968,24.674,24.674,0,0,0-4.33-13.488q-4.335-6.714-15.99-15.32-9.84-7.263-11.6-8.972a21.031,21.031,0,0,1-4.46-5.982,13.9,13.9,0,0,1-1.22-5.676,10.785,10.785,0,0,1,3.45-8.118,12.329,12.329,0,0,1,8.88-3.3,14.87,14.87,0,0,1,7.78,2.137q3.57,2.136,8.64,8.85l7.32-5.555q-6.165-8.422-11.68-11.566a23.646,23.646,0,0,0-11.88-3.143,22.755,22.755,0,0,0-11.07,2.777,20.019,20.019,0,0,0-7.91,7.6,20.86,20.86,0,0,0-2.81,10.681,22.4,22.4,0,0,0,4.77,13.733q2.745,3.785,13.97,12.268,11.175,8.422,15.38,14.4a15.2,15.2,0,0,1,3.06,8.85,14.65,14.65,0,0,1-2.08,7.508,14.893,14.893,0,0,1-6.04,5.645,17.869,17.869,0,0,1-8.49,2.106q-10.56,0-18.61-14.831l-7.63,4.577Q1309.99,451.262,1316.65,455.626Z"/>
  <path id="ZEUS" class="cls-1" d="M-0.376.222v91.65H88.141l21.15-30.55H30.174V30.772H242.066L115.949,213.68l152.75,0.392V244.23H57.982L184.491,60.93h-37.6L-0.376,274.78H299.249V183.522H174.307L300.424,0.222H-0.376Zm655.258,0H355.257V274.78H654.882V183.13H416.357v30.55H624.332v30.55H385.807V30.772H624.332v30.55H416.357v91.65H601.224v-30.55H446.907V91.872H654.882V0.222Zm351.718,0H976.049V126.338a115.442,115.442,0,0,1-9.2,45.825,118.129,118.129,0,0,1-62.667,62.863,119.478,119.478,0,0,1-91.454.214,118.513,118.513,0,0,1-37.208-24.828,120.308,120.308,0,0,1-25.459-36.749,113.343,113.343,0,0,1-9.791-45.152V30.772h29.375v96.533h0.391a83.094,83.094,0,0,0,7.05,34.2,91.192,91.192,0,0,0,19,27.747,87.972,87.972,0,0,0,28,18.763,86.046,86.046,0,0,0,34.075,6.836,84.809,84.809,0,0,0,34.467-7.05,93.27,93.27,0,0,0,28.2-19,86.86,86.86,0,0,0,25.85-62.471V0.222H916.907V127.905a59.358,59.358,0,0,1-5.091,22.325,58.11,58.11,0,0,1-12.534,18.212,59.419,59.419,0,0,1-18.408,12.142,57.335,57.335,0,0,1-22.717,4.5,56.635,56.635,0,0,1-22.912-4.7,58.6,58.6,0,0,1-31.138-31.137,56.657,56.657,0,0,1-4.7-22.913V0.222H709.716V131.43a147.293,147.293,0,0,0,13.1,56.2,147.88,147.88,0,0,0,78.425,75.983,145.074,145.074,0,0,0,56.718,11.163,143.433,143.433,0,0,0,57.888-11.75,150.177,150.177,0,0,0,79.012-79.117,143.055,143.055,0,0,0,11.739-57.575V0.222Zm300.99,157.841a47.55,47.55,0,0,1,12.73,9.988,46.1,46.1,0,0,1,8.62,13.9,43.89,43.89,0,0,1,3.13,16.45,44.542,44.542,0,0,1-3.72,18.212,45.6,45.6,0,0,1-9.98,14.492,47.46,47.46,0,0,1-14.5,9.6,44.218,44.218,0,0,1-17.62,3.525H1122.14a29.432,29.432,0,0,1-29.77-29.767V213.68h193.88q7.05-.386,10.77-5.092a15.8,15.8,0,0,0,0-20.366q-3.72-4.7-10.77-5.092H1061.82v32.117a57.5,57.5,0,0,0,4.71,23.3,60.026,60.026,0,0,0,31.57,31.529,57.752,57.752,0,0,0,23.34,4.7h165.1a73.2,73.2,0,0,0,29.61-6.071,76.237,76.237,0,0,0,40.39-40.341,76.256,76.256,0,0,0,.78-57.771,77.817,77.817,0,0,0-14.7-23.7,76.288,76.288,0,0,0-22.16-16.842,72.7,72.7,0,0,0-27.26-7.637h-8.05c-3.26,0-8.17-.062-14.7-0.2s-15.69-.2-27.46-0.2H1132.38a45.894,45.894,0,0,1-28.44-15.079A43.6,43.6,0,0,1,1092.37,76.6a43.628,43.628,0,0,1,3.72-17.821,49.852,49.852,0,0,1,9.8-14.688,43,43,0,0,1,14.49-9.792,45.655,45.655,0,0,1,17.82-3.525h163.72a29.415,29.415,0,0,1,29.76,29.767v0.783H1138.2a15.131,15.131,0,0,0-10.38,4.7,15.66,15.66,0,0,0,0,21.15,15.5,15.5,0,0,0,10.77,4.7h224.03V60.147a59.093,59.093,0,0,0-4.7-23.5,59.065,59.065,0,0,0-31.77-31.725,58.216,58.216,0,0,0-23.14-4.7H1138.3a74.219,74.219,0,0,0-30,6.071,77.6,77.6,0,0,0-24.12,16.254A76.943,76.943,0,0,0,1067.9,46.83a74.453,74.453,0,0,0-6.08,29.767,76,76,0,0,0,19.98,51.7,78.516,78.516,0,0,0,21.93,16.645,71.436,71.436,0,0,0,27.42,7.638h8.62q4.7,0,14.49.2t27.41,0.2h110.06A46.271,46.271,0,0,1,1307.59,158.063Z"/>
</svg>
